<?xml version="1.0" encoding="iso-8859-1"?>
<!-- Generator: Adobe Illustrator 19.0.0, SVG Export Plug-In . SVG Version: 6.00 Build 0)  -->
<svg version="1.1" id="Capa_1" xmlns="http://www.w3.org/2000/svg" xmlns:xlink="http://www.w3.org/1999/xlink" x="0px" y="0px"
	 viewBox="0 0 503.632 503.632" style="enable-background:new 0 0 503.632 503.632;" xml:space="preserve">
<g>
	<g>
		<path d="M492.904,472.984c-6.096-15.232-18.376-26.784-33.6-32.064c11.056-8.992,20.288-20.8,22.912-24.304l5.072-6.768
			l-7.032-4.688c-12.8-8.528-20.44-22.808-20.44-38.184v-11.16v-40c0-19.536-6.472-37.536-17.288-52.152
			c6.056-19.312,9.288-39.384,9.288-59.848c0-110.28-89.72-200-200-200s-200,89.72-200,200c0,20.464,3.184,40.568,9.248,59.896
			c-10.784,14.608-17.248,32.592-17.248,52.104v40c0,15.576,11.192,28.544,25.952,31.392c4.224,17.024,15.248,31.36,30.048,39.952
			v2.104l-48.072,9.616c-18.632,3.72-33.96,16.472-41.016,34.112L0,499.816h240h23.632h240L492.904,472.984z M464.504,413.16
			c-9.784,11.56-21.88,22.168-28.28,22.576l-32.408-6.48v-2.104c14.8-8.592,25.824-22.928,30.048-39.952
			c4.352-0.84,8.4-2.536,11.936-4.952C448.824,394.144,455.264,404.928,464.504,413.16z M371.816,419.816c-26.472,0-48-21.528-48-48
			V339.44c17.816-1.648,34.48-8.776,48-20.584c13.52,11.808,30.184,18.936,48,20.584v32.376
			C419.816,398.288,398.288,419.816,371.816,419.816z M387.816,433.712v2.104c0,8.824-7.176,16-16,16c-8.824,0-16-7.176-16-16
			v-2.104c5.128,1.328,10.464,2.104,16,2.104S382.688,435.04,387.816,433.712z M309.768,387.208
			c4.224,17.024,15.248,31.36,30.048,39.952v2.104l-32.408,6.48c-6.4-0.408-18.504-11.016-28.28-22.576
			c9.24-8.232,15.68-19.024,18.704-30.912C301.368,384.672,305.416,386.368,309.768,387.208z M299.816,355.816
			c0-5.896,3.24-11,8-13.776v27.552C303.056,366.816,299.816,361.712,299.816,355.816z M435.816,369.592V342.04
			c4.76,2.776,8,7.88,8,13.776S440.576,366.816,435.816,369.592z M443.816,315.816v12.448c-4.728-2.752-10.144-4.448-16-4.448
			c-18.496,0-35.888-7.2-48.976-20.288l-7.024-7.024l-7.024,7.024c-13.088,13.088-30.48,20.288-48.976,20.288
			c-5.856,0-11.272,1.696-16,4.448v-12.448c0-39.696,32.304-72,72-72S443.816,276.12,443.816,315.816z M375.688,67.888
			c35.08,31.992,57.752,77.344,59.928,127.928h-15.8v16h15.664c-0.552,12.936-2.296,25.712-5.504,38.136
			c-15.52-13.728-35.856-22.136-58.16-22.136c-6.104,0-12.064,0.632-17.816,1.816c0.744-5.952,1.232-11.888,1.464-17.816h48.352v-16
			h-48.208c-1.376-35.696-11.776-67.88-25.392-95.184C355.984,89.24,370.16,74.6,375.688,67.888z M363.416,57.656
			c-4.336,5.328-16.888,18.616-40.744,28.872c-16.624-29.152-35.992-51.632-49.416-65.424
			C306.904,25.032,337.8,38.048,363.416,57.656z M259.816,30.448c12.24,12.496,30.984,33.848,47.28,61.704
			c-13.112,3.96-28.8,6.752-47.28,7.408V30.448z M259.816,115.544c21.672-0.72,39.92-4.208,55.08-9.144
			c13.136,25.8,23.272,56.12,24.704,89.408h-79.784V115.544z M259.816,211.816h79.648c-0.328,7.696-1.024,15.424-2.288,23.128
			c-24.976,10.736-43.928,32.736-50.64,59.552c-8.616-1.344-17.6-2.176-26.72-2.48V211.816z M259.816,308.184
			c8.32,0.296,16.44,1.048,24.272,2.28c-0.112,1.784-0.272,3.544-0.272,5.352v40v11.16c0,6.544-1.456,12.856-4.032,18.64
			c-6.608,1.008-13.272,1.736-19.968,2.016V308.184z M219.544,310.464c7.832-1.232,15.952-1.984,24.272-2.28v79.352
			c-12.712-0.56-25.36-2.424-37.68-5.552c8.248-5.8,13.68-15.344,13.68-26.168v-40C219.816,314.008,219.656,312.248,219.544,310.464
			z M217.096,294.488c-6.712-26.808-25.664-48.808-50.64-59.544c-1.264-7.704-1.96-15.432-2.288-23.128h79.648v80.192
			C234.696,292.312,225.712,293.144,217.096,294.488z M164.032,195.816c1.432-33.288,11.576-63.616,24.704-89.408
			c15.16,4.928,33.408,8.416,55.08,9.136v80.272H164.032z M196.536,92.152c16.296-27.864,35.04-49.208,47.28-61.704V99.56
			C225.336,98.904,209.648,96.12,196.536,92.152z M230.376,21.112c-13.424,13.784-32.792,36.264-49.416,65.424
			c-23.856-10.264-36.408-23.552-40.744-28.872C165.84,38.056,196.736,25.032,230.376,21.112z M127.944,67.88
			c5.528,6.712,19.704,21.36,45.472,32.744c-13.616,27.304-24.016,59.496-25.392,95.184h-80
			C70.192,145.232,92.864,99.88,127.944,67.88z M149.632,229.632c-5.752-1.184-11.712-1.816-17.816-1.816
			c-22.28,0-42.592,8.392-58.112,22.088c-3.208-12.416-5.016-25.168-5.568-38.088h80.032
			C148.4,217.752,148.888,223.68,149.632,229.632z M67.816,369.592c-4.76-2.776-8-7.88-8-13.776s3.24-11,8-13.776V369.592z
			 M59.816,328.264v-12.448c0-39.696,32.304-72,72-72s72,32.304,72,72v12.448c-4.728-2.752-10.144-4.448-16-4.448
			c-18.496,0-35.888-7.2-48.976-20.288l-7.024-7.024l-7.024,7.024c-13.088,13.088-30.48,20.288-48.976,20.288
			C69.96,323.816,64.544,325.512,59.816,328.264z M203.816,355.816c0,5.896-3.24,11-8,13.776V342.04
			C200.576,344.816,203.816,349.92,203.816,355.816z M83.816,371.816V339.44c17.816-1.648,34.48-8.776,48-20.584
			c13.52,11.808,30.184,18.936,48,20.584v32.376c0,26.472-21.528,48-48,48S83.816,398.288,83.816,371.816z M147.816,433.712v2.104
			c0,8.824-7.176,16-16,16c-8.824,0-16-7.176-16-16v-2.104c5.128,1.328,10.464,2.104,16,2.104
			C137.352,435.816,142.688,435.04,147.816,433.712z M23.632,483.816l1.96-4.888c5.032-12.6,15.992-21.704,29.296-24.368
			l46.52-9.304c4.048,13.016,16.072,22.56,30.408,22.56s26.36-9.544,30.416-22.56l46.52,9.304
			c13.304,2.664,24.256,11.768,29.288,24.368l1.96,4.888H23.632z M251.816,470.696c-7.44-16.416-22.136-28.264-39.928-31.816
			l-48.072-9.624v-2.104c12.664-7.352,22.56-18.912,27.808-32.76c19.416,6.136,39.592,9.424,60.192,9.424
			c4.72,0,9.432-0.28,14.136-0.608c-0.848,0.656-1.672,1.352-2.576,1.952l-7.032,4.688l5.072,6.768
			c2.624,3.504,11.864,15.32,22.912,24.304C269.896,445.928,258.192,456.624,251.816,470.696z M263.632,483.816l1.96-4.888
			c5.032-12.6,15.992-21.704,29.296-24.368l46.52-9.304c4.048,13.016,16.072,22.56,30.408,22.56s26.36-9.544,30.416-22.56
			l46.52,9.304c13.304,2.664,24.256,11.768,29.288,24.368l1.96,4.888H263.632z"/>
	</g>
</g>
<g>
</g>
<g>
</g>
<g>
</g>
<g>
</g>
<g>
</g>
<g>
</g>
<g>
</g>
<g>
</g>
<g>
</g>
<g>
</g>
<g>
</g>
<g>
</g>
<g>
</g>
<g>
</g>
<g>
</g>
</svg>
