<?xml version="1.0" encoding="iso-8859-1"?>
<!-- Uploaded to: SVG Repo, www.svgrepo.com, Generator: SVG Repo Mixer Tools -->
<svg fill="#000000" height="800px" width="800px" version="1.1" id="Layer_1" xmlns="http://www.w3.org/2000/svg" xmlns:xlink="http://www.w3.org/1999/xlink" 
	 viewBox="0 0 512 512" xml:space="preserve">
<g>
	<g>
		<path d="M255.998,76.539c-98.955,0-179.461,80.505-179.461,179.461s80.506,179.461,179.461,179.461
			c98.956,0,179.461-80.505,179.461-179.461S354.954,76.539,255.998,76.539z M397.302,181.01l11.64,28.102l-32.075,13.286
			l-11.64-28.102L397.302,181.01z M357.848,132.644l21.508,21.51l-24.55,24.548l-21.508-21.51L357.848,132.644z M302.888,103.06
			l28.102,11.64l-13.286,32.075l-28.102-11.64L302.888,103.06z M209.109,103.059l13.286,32.074l-28.101,11.64l-13.286-32.074
			L209.109,103.059z M114.698,181.009l32.072,13.286l-11.641,28.102l-32.072-13.286L114.698,181.009z M96.756,240.791l34.715,0.001
			l-0.001,30.417l-34.715-0.001L96.756,240.791z M114.696,330.991l-11.639-28.102l32.073-13.284l11.639,28.102L114.696,330.991z
			 M154.149,379.359l-21.507-21.51l24.549-24.547l21.507,21.51L154.149,379.359z M157.189,178.7l-24.547-24.549l21.509-21.508
			l24.547,24.549L157.189,178.7z M209.108,408.945l-28.101-11.642l13.286-32.073l28.101,11.642L209.108,408.945z M271.208,415.245
			h-30.417v-34.716h30.417V415.245z M302.887,408.942l-13.285-32.074l28.102-11.64l13.286,32.074L302.887,408.942z M357.847,379.357
			l-24.549-24.548l21.508-21.508l24.549,24.548L357.847,379.357z M397.302,330.992l-32.075-13.286l11.64-28.102l32.075,13.286
			L397.302,330.992z M380.527,271.21h-81.008c-6.299,17.972-23.424,30.9-43.52,30.9c-25.425,0-46.109-20.685-46.109-46.109
			c0-20.097,12.928-37.22,30.901-43.52v-81.008V96.756h30.417v34.716v81.008c13.208,4.628,23.684,15.104,28.312,28.312h81.007
			h34.717v30.417H380.527z"/>
	</g>
</g>
<g>
	<g>
		<path d="M255.999,240.308c-8.653,0-15.692,7.039-15.692,15.692c0,8.654,7.039,15.692,15.692,15.692
			c8.652,0,15.692-7.04,15.692-15.692C271.692,247.347,264.652,240.308,255.999,240.308z"/>
	</g>
</g>
<g>
	<g>
		<path d="M437.018,74.981C388.667,26.63,324.38,0.001,255.999,0.001S123.332,26.63,74.98,74.981C26.628,123.332,0,187.62,0,256
			v255.999h512V256C512,187.62,485.371,123.334,437.018,74.981z M255.999,465.878c-115.728,0-209.878-94.15-209.878-209.878
			s94.15-209.878,209.878-209.878S465.878,140.272,465.878,256S371.727,465.878,255.999,465.878z"/>
	</g>
</g>
</svg>