<?xml version="1.0" encoding="utf-8"?><!-- Uploaded to: SVG Repo, www.svgrepo.com, Generator: SVG Repo Mixer Tools -->
<svg fill="#000000" width="800px" height="800px" viewBox="0 0 1024 1024" xmlns="http://www.w3.org/2000/svg"><path d="M593.987 408.576h285.737c16.962 0 30.72 13.758 30.72 30.72v441.006c0 16.962-13.758 30.72-30.72 30.72h-317.44c-16.968 0-30.72-13.754-30.72-30.72v-39.281c0-11.311-9.169-20.48-20.48-20.48s-20.48 9.169-20.48 20.48v39.281c0 39.586 32.089 71.68 71.68 71.68h317.44c39.583 0 71.68-32.097 71.68-71.68V439.296c0-39.583-32.097-71.68-71.68-71.68H593.987c-11.311 0-20.48 9.169-20.48 20.48s9.169 20.48 20.48 20.48z"/><path d="M152.747 698.88h359.086c11.311 0 20.48-9.169 20.48-20.48s-9.169-20.48-20.48-20.48H152.747c-11.311 0-20.48 9.169-20.48 20.48s9.169 20.48 20.48 20.48z"/><path d="M512 739.328H143.36c-16.962 0-30.72-13.758-30.72-30.72V143.36c0-16.962 13.758-30.72 30.72-30.72H460.8c16.962 0 30.72 13.758 30.72 30.72v396.8c0 11.311 9.169 20.48 20.48 20.48s20.48-9.169 20.48-20.48v-396.8c0-39.583-32.097-71.68-71.68-71.68H143.36c-39.583 0-71.68 32.097-71.68 71.68v565.248c0 39.583 32.097 71.68 71.68 71.68H512c11.311 0 20.48-9.169 20.48-20.48s-9.169-20.48-20.48-20.48z"/><path d="M491.571 439.04v106.24c0 16.962-13.758 30.72-30.72 30.72h-229.12v40.96h229.12c39.583 0 71.68-32.097 71.68-71.68V439.04h-40.96z"/><path d="M112.64 692.531v-44.8c0-16.962 13.758-30.72 30.72-30.72h229.12v-40.96H143.36c-39.583 0-71.68 32.097-71.68 71.68v44.8h40.96zm664.521-124.014c0-26.69-21.643-48.333-48.333-48.333s-48.333 21.643-48.333 48.333c0 26.69 21.643 48.333 48.333 48.333s48.333-21.643 48.333-48.333zm40.96 0c0 49.311-39.981 89.293-89.293 89.293s-89.293-39.981-89.293-89.293c0-49.311 39.981-89.293 89.293-89.293s89.293 39.981 89.293 89.293z"/><path d="M657.707 819.038V688.939c0-17.197 13.932-31.13 31.13-31.13h75.264c17.197 0 31.13 13.932 31.13 31.13v130.099c0 11.311 9.169 20.48 20.48 20.48s20.48-9.169 20.48-20.48V688.939c0-39.819-32.271-72.09-72.09-72.09h-75.264c-39.819 0-72.09 32.271-72.09 72.09v130.099c0 11.311 9.169 20.48 20.48 20.48s20.48-9.169 20.48-20.48zM352.785 250.964c0-26.69-21.643-48.333-48.333-48.333s-48.333 21.643-48.333 48.333c0 26.69 21.643 48.333 48.333 48.333s48.333-21.643 48.333-48.333zm40.96 0c0 49.311-39.981 89.293-89.293 89.293s-89.293-39.981-89.293-89.293c0-49.311 39.981-89.293 89.293-89.293s89.293 39.981 89.293 89.293z"/><path d="M233.332 501.486V371.387c0-17.197 13.932-31.13 31.13-31.13h75.264c17.197 0 31.13 13.932 31.13 31.13v130.099c0 11.311 9.169 20.48 20.48 20.48s20.48-9.169 20.48-20.48V371.387c0-39.819-32.271-72.09-72.09-72.09h-75.264c-39.819 0-72.09 32.271-72.09 72.09v130.099c0 11.311 9.169 20.48 20.48 20.48s20.48-9.169 20.48-20.48z"/></svg>